<?xml version="1.0" standalone="no"?>
<!DOCTYPE svg PUBLIC "-//W3C//DTD SVG 20010904//EN"
 "http://www.w3.org/TR/2001/REC-SVG-20010904/DTD/svg10.dtd">
<svg version="1.0" xmlns="http://www.w3.org/2000/svg"
 width="300.000000pt" height="137.000000pt" viewBox="0 0 300.000000 137.000000"
 preserveAspectRatio="xMidYMid meet">
<metadata>
Created by potrace 1.10, written by Peter Selinger 2001-2011
</metadata>
<g transform="translate(0.000000,137.000000) scale(0.100000,-0.100000)"
fill="#000000" stroke="none">
<path d="M670 1085 c-177 -50 -280 -202 -280 -414 0 -132 57 -203 192 -237
114 -30 339 -5 397 44 17 13 28 50 52 174 18 86 29 164 26 172 -5 13 -28 16
-142 16 l-135 0 -10 -26 c-6 -15 -11 -47 -13 -73 l-2 -46 43 2 42 2 -6 -42
c-9 -58 -27 -70 -93 -63 -67 8 -87 19 -107 58 -12 23 -14 44 -10 81 20 148 92
205 243 193 43 -3 94 -9 114 -12 34 -6 37 -4 69 45 44 70 43 80 -10 110 -41
23 -57 26 -180 28 -97 2 -150 -1 -190 -12z m314 -25 c65 -18 74 -32 45 -75
-13 -19 -29 -37 -35 -39 -6 -2 -45 1 -86 7 -123 17 -225 -15 -268 -85 -54 -88
-57 -214 -6 -263 35 -34 141 -49 184 -26 26 14 42 49 42 91 0 24 -7 32 -39 46
-34 15 -38 21 -34 43 8 47 19 51 128 51 122 0 123 -1 100 -104 -9 -39 -21 -98
-28 -130 -20 -98 -81 -125 -282 -122 -99 1 -128 5 -165 23 -84 40 -120 97
-120 190 0 73 19 183 32 183 4 0 8 7 8 15 0 36 68 117 125 150 43 25 114 51
155 57 56 7 202 0 244 -12z"/>
<path d="M1225 1078 c-14 -38 -125 -630 -120 -638 4 -6 105 -10 256 -10 249 0
249 0 259 23 14 34 31 129 24 136 -3 3 -70 8 -148 11 l-142 5 9 43 8 42 134 0
c155 0 155 0 158 98 l2 57 -132 0 c-113 0 -132 2 -129 15 2 8 7 27 10 43 l6
27 145 0 144 0 10 38 c6 20 13 56 17 80 l7 42 -257 0 c-196 0 -258 -3 -261
-12z m475 -27 c5 -10 5 -23 0 -31 -4 -7 -6 -18 -4 -25 12 -29 -27 -39 -146
-38 -110 1 -119 0 -139 -21 -29 -31 -37 -78 -16 -99 13 -14 37 -17 119 -17 75
0 107 -4 115 -14 12 -14 5 -73 -10 -82 -5 -3 -46 -5 -91 -5 -112 1 -162 -7
-175 -28 -20 -32 -24 -76 -9 -96 13 -18 30 -21 138 -25 l123 -5 3 -28 c2 -16
-4 -39 -13 -53 l-15 -24 -214 0 c-159 0 -216 3 -223 13 -9 11 2 70 81 465 3
12 7 30 9 40 3 9 8 30 11 45 4 16 16 31 29 36 12 5 111 9 220 9 175 -1 199 -3
207 -17z"/>
<path d="M1847 1083 c-11 -18 -128 -634 -122 -643 10 -16 190 -13 204 3 9 12
36 128 66 292 l7 40 54 -112 c33 -72 58 -113 68 -113 9 0 55 45 103 101 91
104 102 119 84 119 -11 0 -65 -51 -129 -123 -23 -27 -48 -47 -55 -45 -6 3 -26
33 -43 69 -18 35 -43 75 -57 87 l-25 24 -16 -24 c-9 -14 -28 -78 -42 -144 -14
-65 -30 -127 -35 -136 -8 -15 -23 -18 -78 -18 -47 0 -70 4 -74 13 -2 7 4 51
14 98 10 47 25 121 33 165 37 204 58 300 70 312 15 15 96 20 138 9 23 -6 37
-26 82 -121 68 -140 80 -147 145 -78 26 27 71 77 101 112 52 60 79 90 83 90
128 13 135 12 145 -7 8 -14 1 -68 -29 -214 -22 -106 -43 -216 -48 -244 -14
-76 -23 -109 -34 -123 -6 -7 -34 -12 -74 -12 -50 0 -65 4 -70 17 -4 9 3 67 15
128 24 121 26 151 14 159 -10 6 -76 -310 -67 -324 7 -12 184 -13 203 -2 11 8
132 584 132 632 0 19 -7 20 -104 20 l-104 0 -108 -129 c-60 -71 -112 -130
-115 -130 -3 -1 -32 58 -64 129 l-59 130 -102 0 c-57 0 -105 -3 -107 -7z"/>
<path d="M904 318 c1 -35 4 -43 20 -43 11 0 20 6 22 13 1 7 0 8 -3 2 -12 -25
-32 -8 -36 30 l-4 40 1 -42z"/>
<path d="M1253 315 c0 -27 2 -38 4 -22 3 18 10 27 23 27 13 0 20 -9 23 -27 5
-27 5 -27 3 2 -1 23 -6 31 -23 33 -12 2 -24 11 -26 20 -3 9 -5 -5 -4 -33z"/>
<path d="M1360 353 c0 -7 5 -15 10 -18 6 -3 10 -21 11 -38 l1 -32 8 32 c4 18
13 40 20 48 7 9 8 15 2 15 -5 0 -13 -8 -17 -17 -6 -17 -7 -17 -21 1 -8 11 -14
15 -14 9z"/>
<path d="M1640 315 c0 -38 3 -45 19 -45 30 0 38 20 32 80 -1 6 -12 10 -26 10
-23 0 -25 -4 -25 -45z m45 25 c3 -6 -1 -13 -10 -17 -16 -5 -16 -7 -1 -15 18
-10 12 -28 -10 -28 -9 0 -14 11 -14 35 0 34 20 49 35 25z"/>
<path d="M971 298 c2 -32 2 -32 6 -5 5 35 38 34 37 -1 0 -14 3 -19 9 -13 17
17 -3 51 -29 51 -21 0 -24 -4 -23 -32z"/>
<path d="M1067 324 c-13 -13 -7 -42 9 -48 23 -9 34 -7 34 4 0 5 -6 7 -14 4 -8
-3 -17 -1 -21 5 -4 7 4 11 20 11 17 0 25 5 23 13 -5 14 -40 21 -51 11z"/>
<path d="M1158 321 c10 -6 8 -10 -8 -14 -27 -7 -21 -31 8 -35 19 -3 22 1 22
27 0 23 -5 31 -17 31 -14 0 -15 -2 -5 -9z"/>
<path d="M1190 319 c0 -6 9 -13 20 -16 27 -7 25 -20 -2 -26 -21 -5 -21 -5 1
-4 32 3 39 27 10 34 -22 6 -22 7 -3 14 18 7 17 8 -3 8 -13 1 -23 -4 -23 -10z"/>
<path d="M1426 313 c-8 -21 17 -48 38 -40 9 4 16 18 16 32 0 20 -5 25 -24 25
-13 0 -27 -8 -30 -17z m44 -13 c0 -23 -25 -27 -33 -6 -7 16 1 26 20 26 7 0 13
-9 13 -20z"/>
<path d="M1504 300 c1 -18 7 -26 24 -28 19 -3 22 1 21 30 -1 29 -2 30 -8 9 -9
-33 -29 -38 -34 -9 -4 21 -4 21 -3 -2z"/>
<path d="M1868 321 c10 -6 8 -10 -8 -14 -27 -7 -21 -31 8 -35 19 -3 22 1 22
27 0 23 -5 31 -17 31 -14 0 -15 -2 -5 -9z"/>
<path d="M1901 298 c1 -30 2 -31 8 -8 10 36 39 38 44 3 4 -27 4 -27 6 5 1 29
-2 32 -29 32 -27 0 -30 -3 -29 -32z"/>
<path d="M1976 314 c-11 -28 33 -61 48 -36 3 5 -5 8 -17 8 -13 -1 -22 5 -22
14 0 9 9 15 23 14 12 0 22 3 22 8 0 15 -48 8 -54 -8z"/>
<path d="M2046 314 c-8 -20 11 -44 33 -43 10 0 7 4 -9 12 l-25 11 28 4 c15 2
27 10 27 18 0 20 -46 18 -54 -2z"/>
</g>
</svg>
